%TF.GenerationSoftware,KiCad,Pcbnew,10.0.1*%
%TF.CreationDate,2026-04-26T14:03:01-06:00*%
%TF.ProjectId,Phil's_Lab_Tutorial,5068696c-2773-45f4-9c61-625f5475746f,rev?*%
%TF.SameCoordinates,Original*%
%TF.FileFunction,Copper,L2,Bot*%
%TF.FilePolarity,Positive*%
%FSLAX46Y46*%
G04 Gerber Fmt 4.6, Leading zero omitted, Abs format (unit mm)*
G04 Created by KiCad (PCBNEW 10.0.1) date 2026-04-26 14:03:01*
%MOMM*%
%LPD*%
G01*
G04 APERTURE LIST*
%TA.AperFunction,ComponentPad*%
%ADD10O,1.800000X1.150000*%
%TD*%
%TA.AperFunction,ComponentPad*%
%ADD11O,2.000000X1.450000*%
%TD*%
%TA.AperFunction,ComponentPad*%
%ADD12R,1.700000X1.700000*%
%TD*%
%TA.AperFunction,ComponentPad*%
%ADD13C,1.700000*%
%TD*%
%TA.AperFunction,ViaPad*%
%ADD14C,0.600000*%
%TD*%
%TA.AperFunction,Conductor*%
%ADD15C,0.500000*%
%TD*%
G04 APERTURE END LIST*
D10*
%TO.P,J4,SH,Shield_SH*%
%TO.N,unconnected-(J4-Shield-PadSH)*%
X73950000Y-65000000D03*
D11*
%TO.N,unconnected-(J4-Shield-PadSH)_3*%
X70150000Y-64850000D03*
%TO.N,unconnected-(J4-Shield-PadSH)_1*%
X70150000Y-57400000D03*
D10*
%TO.N,unconnected-(J4-Shield-PadSH)_2*%
X73950000Y-57250000D03*
%TD*%
D12*
%TO.P,J1,1,Pin_1_1*%
%TO.N,+3.3V*%
X46600000Y-75300000D03*
D13*
%TO.P,J1,2,Pin_2_2*%
%TO.N,/I2C2_SCL*%
X49140000Y-75300000D03*
%TO.P,J1,3,Pin_3_3*%
%TO.N,/I2C2_SDA*%
X51680000Y-75300000D03*
%TO.P,J1,4,Pin_4_4*%
%TO.N,GND*%
X54220000Y-75300000D03*
%TD*%
D12*
%TO.P,J2,1,Pin_1_1*%
%TO.N,+3.3V*%
X54000000Y-49500000D03*
D13*
%TO.P,J2,2,Pin_2_2*%
%TO.N,/UART1_TX*%
X51460000Y-49500000D03*
%TO.P,J2,3,Pin_3_3*%
%TO.N,/UART1_RX*%
X48920000Y-49500000D03*
%TO.P,J2,4,Pin_4_4*%
%TO.N,GND*%
X46380000Y-49500000D03*
%TD*%
D12*
%TO.P,J3,1,Pin_1_1*%
%TO.N,+3.3V*%
X66320000Y-49500000D03*
D13*
%TO.P,J3,2,Pin_2_2*%
%TO.N,/SWDIO*%
X63780000Y-49500000D03*
%TO.P,J3,3,Pin_3_3*%
%TO.N,/SWCLK*%
X61240000Y-49500000D03*
%TO.P,J3,4,Pin_4_4*%
%TO.N,GND*%
X58700000Y-49500000D03*
%TD*%
D14*
%TO.N,+3.3V*%
X47900000Y-72900000D03*
X49230000Y-72900000D03*
X52500000Y-71200000D03*
X53800000Y-71200000D03*
%TO.N,GND*%
X58600000Y-61100000D03*
X42100000Y-61500000D03*
X40400000Y-66400000D03*
X40600000Y-54600000D03*
X44400000Y-67400000D03*
X67400000Y-70800000D03*
X53600000Y-65800000D03*
X49000000Y-64000000D03*
X44340000Y-70340000D03*
X63000000Y-70100000D03*
X63700000Y-70100000D03*
X68200000Y-59800000D03*
X49500000Y-60300000D03*
X64200000Y-65800000D03*
X44800000Y-62600000D03*
X50600000Y-68800000D03*
X42600000Y-60600000D03*
X44000000Y-59000000D03*
X64200000Y-66600000D03*
X68200000Y-68200000D03*
%TD*%
%TO.N,+3.3V*%
D15*
X49230000Y-72900000D02*
X47900000Y-72900000D01*
X53800000Y-71200000D02*
X52500000Y-71200000D01*
%TD*%
%TA.AperFunction,Conductor*%
%TO.N,GND*%
G36*
X73003243Y-47000669D02*
G01*
X73280182Y-47015184D01*
X73287575Y-47015794D01*
X73349875Y-47022813D01*
X73355353Y-47023555D01*
X73597128Y-47061848D01*
X73605289Y-47063423D01*
X73660830Y-47076100D01*
X73665181Y-47077179D01*
X73908155Y-47142284D01*
X73917002Y-47145014D01*
X73959603Y-47159921D01*
X73963079Y-47161195D01*
X74209389Y-47255745D01*
X74218724Y-47259777D01*
X74239298Y-47269685D01*
X74241744Y-47270897D01*
X74493968Y-47399411D01*
X74505183Y-47405885D01*
X74757619Y-47569819D01*
X74768109Y-47577441D01*
X75002010Y-47766850D01*
X75011655Y-47775535D01*
X75224464Y-47988344D01*
X75233149Y-47997989D01*
X75422558Y-48231890D01*
X75430187Y-48242391D01*
X75594100Y-48494795D01*
X75600590Y-48506035D01*
X75729099Y-48758249D01*
X75730334Y-48760742D01*
X75740215Y-48781260D01*
X75744259Y-48790624D01*
X75838800Y-49036912D01*
X75840077Y-49040395D01*
X75854984Y-49082996D01*
X75857718Y-49091857D01*
X75922806Y-49334766D01*
X75923923Y-49339269D01*
X75936569Y-49394679D01*
X75938150Y-49402872D01*
X75976440Y-49644627D01*
X75977187Y-49650142D01*
X75984204Y-49712424D01*
X75984814Y-49719816D01*
X75999330Y-49996755D01*
X75999500Y-50003246D01*
X75999500Y-74996753D01*
X75999330Y-75003244D01*
X75984814Y-75280182D01*
X75984204Y-75287574D01*
X75977187Y-75349856D01*
X75976440Y-75355371D01*
X75938150Y-75597126D01*
X75936569Y-75605319D01*
X75923923Y-75660729D01*
X75922806Y-75665232D01*
X75857718Y-75908141D01*
X75854984Y-75917002D01*
X75840077Y-75959603D01*
X75838800Y-75963086D01*
X75744259Y-76209374D01*
X75740215Y-76218737D01*
X75730325Y-76239274D01*
X75729090Y-76241767D01*
X75600593Y-76493959D01*
X75594103Y-76505200D01*
X75430187Y-76757608D01*
X75422558Y-76768109D01*
X75233149Y-77002010D01*
X75224464Y-77011655D01*
X75011655Y-77224464D01*
X75002010Y-77233149D01*
X74768109Y-77422558D01*
X74757608Y-77430187D01*
X74505200Y-77594103D01*
X74493959Y-77600593D01*
X74241767Y-77729090D01*
X74239274Y-77730325D01*
X74218737Y-77740215D01*
X74209374Y-77744259D01*
X73963086Y-77838800D01*
X73959603Y-77840077D01*
X73917002Y-77854984D01*
X73908141Y-77857718D01*
X73665232Y-77922806D01*
X73660729Y-77923923D01*
X73605319Y-77936569D01*
X73597126Y-77938150D01*
X73355371Y-77976440D01*
X73349856Y-77977187D01*
X73287574Y-77984204D01*
X73280182Y-77984814D01*
X73003244Y-77999330D01*
X72996753Y-77999500D01*
X38003246Y-77999500D01*
X37996757Y-77999330D01*
X37986676Y-77998801D01*
X37719816Y-77984814D01*
X37712424Y-77984204D01*
X37650142Y-77977187D01*
X37644627Y-77976440D01*
X37402872Y-77938150D01*
X37394679Y-77936569D01*
X37366044Y-77930033D01*
X37339245Y-77923917D01*
X37334766Y-77922806D01*
X37091857Y-77857718D01*
X37082996Y-77854984D01*
X37040395Y-77840077D01*
X37036912Y-77838800D01*
X36790624Y-77744259D01*
X36781260Y-77740215D01*
X36760742Y-77730334D01*
X36758249Y-77729099D01*
X36506035Y-77600590D01*
X36494795Y-77594100D01*
X36242391Y-77430187D01*
X36231890Y-77422558D01*
X35997989Y-77233149D01*
X35988344Y-77224464D01*
X35775535Y-77011655D01*
X35766850Y-77002010D01*
X35577441Y-76768109D01*
X35569819Y-76757619D01*
X35405885Y-76505183D01*
X35399408Y-76493963D01*
X35375777Y-76447585D01*
X35270897Y-76241744D01*
X35269673Y-76239274D01*
X35259781Y-76218733D01*
X35255745Y-76209389D01*
X35161195Y-75963079D01*
X35159921Y-75959603D01*
X35145014Y-75917002D01*
X35142284Y-75908155D01*
X35077179Y-75665181D01*
X35076100Y-75660830D01*
X35063423Y-75605289D01*
X35061848Y-75597126D01*
X35057458Y-75569409D01*
X35023555Y-75355353D01*
X35022811Y-75349856D01*
X35022699Y-75348863D01*
X35015794Y-75287574D01*
X35015184Y-75280181D01*
X35014196Y-75261338D01*
X35000670Y-75003243D01*
X35000500Y-74996753D01*
X35000500Y-74893713D01*
X36649500Y-74893713D01*
X36649500Y-75106286D01*
X36682324Y-75313533D01*
X36682754Y-75316243D01*
X36732721Y-75470026D01*
X36748444Y-75518414D01*
X36844951Y-75707820D01*
X36969890Y-75879786D01*
X37120213Y-76030109D01*
X37292179Y-76155048D01*
X37292181Y-76155049D01*
X37292184Y-76155051D01*
X37481588Y-76251557D01*
X37683757Y-76317246D01*
X37893713Y-76350500D01*
X37893714Y-76350500D01*
X38106286Y-76350500D01*
X38106287Y-76350500D01*
X38316243Y-76317246D01*
X38518412Y-76251557D01*
X38707816Y-76155051D01*
X38729789Y-76139086D01*
X38879786Y-76030109D01*
X38879788Y-76030106D01*
X38879792Y-76030104D01*
X39030104Y-75879792D01*
X39030106Y-75879788D01*
X39030109Y-75879786D01*
X39155048Y-75707820D01*
X39155047Y-75707820D01*
X39155051Y-75707816D01*
X39251557Y-75518412D01*
X39317246Y-75316243D01*
X39350500Y-75106287D01*
X39350500Y-74893713D01*
X39317246Y-74683757D01*
X39251557Y-74481588D01*
X39251555Y-74481584D01*
X39239461Y-74457847D01*
X39212600Y-74405131D01*
X45449500Y-74405131D01*
X45449500Y-76194856D01*
X45449502Y-76194882D01*
X45452413Y-76219987D01*
X45452415Y-76219991D01*
X45497793Y-76322764D01*
X45497794Y-76322765D01*
X45577235Y-76402206D01*
X45680009Y-76447585D01*
X45705135Y-76450500D01*
X47494864Y-76450499D01*
X47494879Y-76450497D01*
X47494882Y-76450497D01*
X47519987Y-76447586D01*
X47519988Y-76447585D01*
X47519991Y-76447585D01*
X47622765Y-76402206D01*
X47702206Y-76322765D01*
X47747585Y-76219991D01*
X47750500Y-76194865D01*
X47750499Y-75457125D01*
X47770183Y-75390089D01*
X47822987Y-75344334D01*
X47892146Y-75334390D01*
X47955702Y-75363415D01*
X47993476Y-75422193D01*
X47996972Y-75437729D01*
X48017829Y-75569410D01*
X48073787Y-75741636D01*
X48073788Y-75741639D01*
X48156006Y-75902997D01*
X48262441Y-76049494D01*
X48262445Y-76049499D01*
X48390500Y-76177554D01*
X48390505Y-76177558D01*
X48492357Y-76251557D01*
X48537006Y-76283996D01*
X48613094Y-76322765D01*
X48698360Y-76366211D01*
X48698363Y-76366212D01*
X48784476Y-76394191D01*
X48870591Y-76422171D01*
X48953429Y-76435291D01*
X49049449Y-76450500D01*
X49049454Y-76450500D01*
X49230551Y-76450500D01*
X49317259Y-76436765D01*
X49409409Y-76422171D01*
X49581639Y-76366211D01*
X49742994Y-76283996D01*
X49889501Y-76177553D01*
X50017553Y-76049501D01*
X50123996Y-75902994D01*
X50206211Y-75741639D01*
X50262171Y-75569409D01*
X50277912Y-75470026D01*
X50287527Y-75409321D01*
X50317456Y-75346186D01*
X50376768Y-75309255D01*
X50446630Y-75310253D01*
X50504863Y-75348863D01*
X50532473Y-75409321D01*
X50557829Y-75569410D01*
X50613787Y-75741636D01*
X50613788Y-75741639D01*
X50696006Y-75902997D01*
X50802441Y-76049494D01*
X50802445Y-76049499D01*
X50930500Y-76177554D01*
X50930505Y-76177558D01*
X51032357Y-76251557D01*
X51077006Y-76283996D01*
X51153094Y-76322765D01*
X51238360Y-76366211D01*
X51238363Y-76366212D01*
X51324476Y-76394191D01*
X51410591Y-76422171D01*
X51493429Y-76435291D01*
X51589449Y-76450500D01*
X51589454Y-76450500D01*
X51770551Y-76450500D01*
X51857259Y-76436765D01*
X51949409Y-76422171D01*
X52121639Y-76366211D01*
X52282994Y-76283996D01*
X52405669Y-76194868D01*
X52429495Y-76177558D01*
X52429497Y-76177555D01*
X52429501Y-76177553D01*
X52557553Y-76049501D01*
X52663996Y-75902994D01*
X52731090Y-75771314D01*
X52779065Y-75720519D01*
X52846886Y-75703724D01*
X52913021Y-75726262D01*
X52956472Y-75780977D01*
X52959506Y-75789292D01*
X52968904Y-75818217D01*
X53065375Y-76007550D01*
X53104728Y-76061716D01*
X53737037Y-75429408D01*
X53754075Y-75492993D01*
X53819901Y-75607007D01*
X53912993Y-75700099D01*
X54027007Y-75765925D01*
X54090590Y-75782962D01*
X53458282Y-76415269D01*
X53458282Y-76415270D01*
X53512449Y-76454624D01*
X53701782Y-76551095D01*
X53903870Y-76616757D01*
X54113754Y-76650000D01*
X54326246Y-76650000D01*
X54536127Y-76616757D01*
X54536130Y-76616757D01*
X54738217Y-76551095D01*
X54927554Y-76454622D01*
X54981716Y-76415270D01*
X54981717Y-76415270D01*
X54349408Y-75782962D01*
X54412993Y-75765925D01*
X54527007Y-75700099D01*
X54620099Y-75607007D01*
X54685925Y-75492993D01*
X54702962Y-75429408D01*
X55335270Y-76061717D01*
X55335270Y-76061716D01*
X55374622Y-76007554D01*
X55471095Y-75818217D01*
X55536757Y-75616130D01*
X55536757Y-75616127D01*
X55570000Y-75406246D01*
X55570000Y-75193753D01*
X55536757Y-74983872D01*
X55536757Y-74983869D01*
X55518331Y-74927159D01*
X55507464Y-74893713D01*
X71649500Y-74893713D01*
X71649500Y-75106286D01*
X71682324Y-75313533D01*
X71682754Y-75316243D01*
X71732721Y-75470026D01*
X71748444Y-75518414D01*
X71844951Y-75707820D01*
X71969890Y-75879786D01*
X72120213Y-76030109D01*
X72292179Y-76155048D01*
X72292181Y-76155049D01*
X72292184Y-76155051D01*
X72481588Y-76251557D01*
X72683757Y-76317246D01*
X72893713Y-76350500D01*
X72893714Y-76350500D01*
X73106286Y-76350500D01*
X73106287Y-76350500D01*
X73316243Y-76317246D01*
X73518412Y-76251557D01*
X73707816Y-76155051D01*
X73729789Y-76139086D01*
X73879786Y-76030109D01*
X73879788Y-76030106D01*
X73879792Y-76030104D01*
X74030104Y-75879792D01*
X74030106Y-75879788D01*
X74030109Y-75879786D01*
X74155048Y-75707820D01*
X74155047Y-75707820D01*
X74155051Y-75707816D01*
X74251557Y-75518412D01*
X74317246Y-75316243D01*
X74350500Y-75106287D01*
X74350500Y-74893713D01*
X74317246Y-74683757D01*
X74251557Y-74481588D01*
X74155051Y-74292184D01*
X74155049Y-74292181D01*
X74155048Y-74292179D01*
X74030109Y-74120213D01*
X73879786Y-73969890D01*
X73707820Y-73844951D01*
X73518414Y-73748444D01*
X73518413Y-73748443D01*
X73518412Y-73748443D01*
X73316243Y-73682754D01*
X73316241Y-73682753D01*
X73316240Y-73682753D01*
X73154957Y-73657208D01*
X73106287Y-73649500D01*
X72893713Y-73649500D01*
X72845042Y-73657208D01*
X72683760Y-73682753D01*
X72481585Y-73748444D01*
X72292179Y-73844951D01*
X72120213Y-73969890D01*
X71969890Y-74120213D01*
X71844951Y-74292179D01*
X71748444Y-74481585D01*
X71682753Y-74683760D01*
X71649500Y-74893713D01*
X55507464Y-74893713D01*
X55471095Y-74781782D01*
X55374624Y-74592449D01*
X55335270Y-74538282D01*
X55335269Y-74538282D01*
X54702962Y-75170590D01*
X54685925Y-75107007D01*
X54620099Y-74992993D01*
X54527007Y-74899901D01*
X54412993Y-74834075D01*
X54349409Y-74817037D01*
X54981716Y-74184728D01*
X54927550Y-74145375D01*
X54738217Y-74048904D01*
X54536129Y-73983242D01*
X54326246Y-73950000D01*
X54113754Y-73950000D01*
X53903872Y-73983242D01*
X53903869Y-73983242D01*
X53701782Y-74048904D01*
X53512439Y-74145380D01*
X53458282Y-74184727D01*
X53458282Y-74184728D01*
X54090591Y-74817037D01*
X54027007Y-74834075D01*
X53912993Y-74899901D01*
X53819901Y-74992993D01*
X53754075Y-75107007D01*
X53737037Y-75170591D01*
X53104728Y-74538282D01*
X53104727Y-74538282D01*
X53065380Y-74592439D01*
X52968905Y-74781781D01*
X52959506Y-74810708D01*
X52920068Y-74868383D01*
X52855709Y-74895581D01*
X52786862Y-74883666D01*
X52735387Y-74836421D01*
X52731090Y-74828684D01*
X52707191Y-74781781D01*
X52663996Y-74697006D01*
X52650396Y-74678287D01*
X52557558Y-74550505D01*
X52557554Y-74550500D01*
X52429499Y-74422445D01*
X52429494Y-74422441D01*
X52305432Y-74332305D01*
X52282996Y-74316005D01*
X52121639Y-74233788D01*
X52121636Y-74233787D01*
X51949410Y-74177829D01*
X51770551Y-74149500D01*
X51770546Y-74149500D01*
X51589454Y-74149500D01*
X51589449Y-74149500D01*
X51410589Y-74177829D01*
X51238363Y-74233787D01*
X51238360Y-74233788D01*
X51077002Y-74316006D01*
X50930505Y-74422441D01*
X50930500Y-74422445D01*
X50802445Y-74550500D01*
X50802441Y-74550505D01*
X50696006Y-74697002D01*
X50613788Y-74858360D01*
X50613787Y-74858363D01*
X50557829Y-75030589D01*
X50532473Y-75190678D01*
X50502544Y-75253813D01*
X50443232Y-75290744D01*
X50373369Y-75289746D01*
X50315137Y-75251136D01*
X50287527Y-75190678D01*
X50273740Y-75103639D01*
X50262171Y-75030591D01*
X50234191Y-74944476D01*
X50206212Y-74858363D01*
X50206211Y-74858360D01*
X50167191Y-74781781D01*
X50123996Y-74697006D01*
X50110396Y-74678287D01*
X50017558Y-74550505D01*
X50017554Y-74550500D01*
X49889499Y-74422445D01*
X49889494Y-74422441D01*
X49742997Y-74316006D01*
X49742996Y-74316005D01*
X49742994Y-74316004D01*
X49666906Y-74277235D01*
X49581639Y-74233788D01*
X49581636Y-74233787D01*
X49409410Y-74177829D01*
X49230551Y-74149500D01*
X49230546Y-74149500D01*
X49049454Y-74149500D01*
X49049449Y-74149500D01*
X48870589Y-74177829D01*
X48698363Y-74233787D01*
X48698360Y-74233788D01*
X48537002Y-74316006D01*
X48390505Y-74422441D01*
X48390500Y-74422445D01*
X48262445Y-74550500D01*
X48262441Y-74550505D01*
X48156006Y-74697002D01*
X48073788Y-74858360D01*
X48073787Y-74858363D01*
X48017829Y-75030589D01*
X47996972Y-75162271D01*
X47967042Y-75225405D01*
X47907731Y-75262336D01*
X47837868Y-75261338D01*
X47779636Y-75222728D01*
X47751522Y-75158764D01*
X47750499Y-75142872D01*
X47750499Y-74405143D01*
X47750499Y-74405136D01*
X47750497Y-74405117D01*
X47747586Y-74380012D01*
X47747585Y-74380010D01*
X47747585Y-74380009D01*
X47702206Y-74277235D01*
X47622765Y-74197794D01*
X47622763Y-74197793D01*
X47519992Y-74152415D01*
X47494865Y-74149500D01*
X45705143Y-74149500D01*
X45705117Y-74149502D01*
X45680012Y-74152413D01*
X45680008Y-74152415D01*
X45577235Y-74197793D01*
X45497794Y-74277234D01*
X45452415Y-74380006D01*
X45452415Y-74380008D01*
X45449500Y-74405131D01*
X39212600Y-74405131D01*
X39206251Y-74392671D01*
X39155051Y-74292184D01*
X39112625Y-74233789D01*
X39030109Y-74120213D01*
X38879786Y-73969890D01*
X38707820Y-73844951D01*
X38518414Y-73748444D01*
X38518413Y-73748443D01*
X38518412Y-73748443D01*
X38316243Y-73682754D01*
X38316241Y-73682753D01*
X38316240Y-73682753D01*
X38154957Y-73657208D01*
X38106287Y-73649500D01*
X37893713Y-73649500D01*
X37845042Y-73657208D01*
X37683760Y-73682753D01*
X37481585Y-73748444D01*
X37292179Y-73844951D01*
X37120213Y-73969890D01*
X36969890Y-74120213D01*
X36844951Y-74292179D01*
X36748444Y-74481585D01*
X36682753Y-74683760D01*
X36649500Y-74893713D01*
X35000500Y-74893713D01*
X35000500Y-72820943D01*
X47299500Y-72820943D01*
X47299500Y-72979056D01*
X47340423Y-73131783D01*
X47340426Y-73131790D01*
X47419475Y-73268709D01*
X47419479Y-73268714D01*
X47419480Y-73268716D01*
X47531284Y-73380520D01*
X47531286Y-73380521D01*
X47531290Y-73380524D01*
X47652494Y-73450500D01*
X47668216Y-73459577D01*
X47820943Y-73500500D01*
X47820945Y-73500500D01*
X47979055Y-73500500D01*
X47979057Y-73500500D01*
X48131784Y-73459577D01*
X48131785Y-73459576D01*
X48139635Y-73457473D01*
X48139820Y-73458165D01*
X48178363Y-73450500D01*
X48951637Y-73450500D01*
X48990179Y-73458165D01*
X48990365Y-73457473D01*
X48998214Y-73459576D01*
X48998216Y-73459577D01*
X49150943Y-73500500D01*
X49150945Y-73500500D01*
X49309055Y-73500500D01*
X49309057Y-73500500D01*
X49461784Y-73459577D01*
X49598716Y-73380520D01*
X49710520Y-73268716D01*
X49789577Y-73131784D01*
X49830500Y-72979057D01*
X49830500Y-72820943D01*
X49789577Y-72668216D01*
X49789573Y-72668209D01*
X49710524Y-72531290D01*
X49710518Y-72531282D01*
X49598717Y-72419481D01*
X49598709Y-72419475D01*
X49461790Y-72340426D01*
X49461786Y-72340424D01*
X49461784Y-72340423D01*
X49309057Y-72299500D01*
X49150943Y-72299500D01*
X48998216Y-72340423D01*
X48998214Y-72340423D01*
X48990365Y-72342527D01*
X48990179Y-72341834D01*
X48951637Y-72349500D01*
X48178363Y-72349500D01*
X48139820Y-72341834D01*
X48139635Y-72342527D01*
X48131785Y-72340423D01*
X48131784Y-72340423D01*
X47979057Y-72299500D01*
X47820943Y-72299500D01*
X47668216Y-72340423D01*
X47668209Y-72340426D01*
X47531290Y-72419475D01*
X47531282Y-72419481D01*
X47419481Y-72531282D01*
X47419475Y-72531290D01*
X47340426Y-72668209D01*
X47340423Y-72668216D01*
X47299500Y-72820943D01*
X35000500Y-72820943D01*
X35000500Y-71120943D01*
X51899500Y-71120943D01*
X51899500Y-71279056D01*
X51940423Y-71431783D01*
X51940426Y-71431790D01*
X52019475Y-71568709D01*
X52019479Y-71568714D01*
X52019480Y-71568716D01*
X52131284Y-71680520D01*
X52131286Y-71680521D01*
X52131290Y-71680524D01*
X52252494Y-71750500D01*
X52268216Y-71759577D01*
X52420943Y-71800500D01*
X52420945Y-71800500D01*
X52579055Y-71800500D01*
X52579057Y-71800500D01*
X52731784Y-71759577D01*
X52731785Y-71759576D01*
X52739635Y-71757473D01*
X52739820Y-71758165D01*
X52778363Y-71750500D01*
X53521637Y-71750500D01*
X53560179Y-71758165D01*
X53560365Y-71757473D01*
X53568214Y-71759576D01*
X53568216Y-71759577D01*
X53720943Y-71800500D01*
X53720945Y-71800500D01*
X53879055Y-71800500D01*
X53879057Y-71800500D01*
X54031784Y-71759577D01*
X54168716Y-71680520D01*
X54280520Y-71568716D01*
X54359577Y-71431784D01*
X54400500Y-71279057D01*
X54400500Y-71120943D01*
X54359577Y-70968216D01*
X54359573Y-70968209D01*
X54280524Y-70831290D01*
X54280518Y-70831282D01*
X54168717Y-70719481D01*
X54168709Y-70719475D01*
X54031790Y-70640426D01*
X54031786Y-70640424D01*
X54031784Y-70640423D01*
X53879057Y-70599500D01*
X53720943Y-70599500D01*
X53568216Y-70640423D01*
X53568214Y-70640423D01*
X53560365Y-70642527D01*
X53560179Y-70641834D01*
X53521637Y-70649500D01*
X52778363Y-70649500D01*
X52739820Y-70641834D01*
X52739635Y-70642527D01*
X52731785Y-70640423D01*
X52731784Y-70640423D01*
X52579057Y-70599500D01*
X52420943Y-70599500D01*
X52268216Y-70640423D01*
X52268209Y-70640426D01*
X52131290Y-70719475D01*
X52131282Y-70719481D01*
X52019481Y-70831282D01*
X52019475Y-70831290D01*
X51940426Y-70968209D01*
X51940423Y-70968216D01*
X51899500Y-71120943D01*
X35000500Y-71120943D01*
X35000500Y-64748992D01*
X68849500Y-64748992D01*
X68849500Y-64951007D01*
X68888907Y-65149119D01*
X68888909Y-65149127D01*
X68966212Y-65335752D01*
X68966217Y-65335762D01*
X69078441Y-65503718D01*
X69221281Y-65646558D01*
X69389237Y-65758782D01*
X69389241Y-65758784D01*
X69389244Y-65758786D01*
X69575873Y-65836091D01*
X69773992Y-65875499D01*
X69773996Y-65875500D01*
X69773997Y-65875500D01*
X70526004Y-65875500D01*
X70526005Y-65875499D01*
X70724127Y-65836091D01*
X70910756Y-65758786D01*
X71078718Y-65646558D01*
X71221558Y-65503718D01*
X71333786Y-65335756D01*
X71411091Y-65149127D01*
X71450500Y-64951003D01*
X71450500Y-64913766D01*
X72749500Y-64913766D01*
X72749500Y-65086233D01*
X72783143Y-65255366D01*
X72783146Y-65255378D01*
X72849138Y-65414698D01*
X72849145Y-65414711D01*
X72944954Y-65558098D01*
X72944957Y-65558102D01*
X73066897Y-65680042D01*
X73066901Y-65680045D01*
X73210288Y-65775854D01*
X73210301Y-65775861D01*
X73355708Y-65836090D01*
X73369626Y-65841855D01*
X73538766Y-65875499D01*
X73538769Y-65875500D01*
X73538771Y-65875500D01*
X74361231Y-65875500D01*
X74361232Y-65875499D01*
X74530374Y-65841855D01*
X74689705Y-65775858D01*
X74833099Y-65680045D01*
X74955045Y-65558099D01*
X75050858Y-65414705D01*
X75116855Y-65255374D01*
X75150500Y-65086229D01*
X75150500Y-64913771D01*
X75150500Y-64913768D01*
X75150499Y-64913766D01*
X75116856Y-64744633D01*
X75116855Y-64744626D01*
X75116853Y-64744621D01*
X75050861Y-64585301D01*
X75050854Y-64585288D01*
X74955045Y-64441901D01*
X74955042Y-64441897D01*
X74833102Y-64319957D01*
X74833098Y-64319954D01*
X74689711Y-64224145D01*
X74689698Y-64224138D01*
X74530378Y-64158146D01*
X74530366Y-64158143D01*
X74361232Y-64124500D01*
X74361229Y-64124500D01*
X73538771Y-64124500D01*
X73538768Y-64124500D01*
X73369633Y-64158143D01*
X73369621Y-64158146D01*
X73210301Y-64224138D01*
X73210288Y-64224145D01*
X73066901Y-64319954D01*
X73066897Y-64319957D01*
X72944957Y-64441897D01*
X72944954Y-64441901D01*
X72849145Y-64585288D01*
X72849138Y-64585301D01*
X72783146Y-64744621D01*
X72783143Y-64744633D01*
X72749500Y-64913766D01*
X71450500Y-64913766D01*
X71450500Y-64748997D01*
X71411091Y-64550873D01*
X71368354Y-64447697D01*
X71360885Y-64378227D01*
X71392160Y-64315748D01*
X71435457Y-64285685D01*
X71531811Y-64245775D01*
X71646542Y-64169114D01*
X71744114Y-64071542D01*
X71820775Y-63956811D01*
X71827236Y-63941214D01*
X71873578Y-63829332D01*
X71873580Y-63829328D01*
X71887975Y-63756959D01*
X71900500Y-63693995D01*
X71900500Y-63556004D01*
X71873581Y-63420677D01*
X71873580Y-63420676D01*
X71873580Y-63420672D01*
X71873578Y-63420667D01*
X71820778Y-63293195D01*
X71820771Y-63293182D01*
X71744114Y-63178458D01*
X71744111Y-63178454D01*
X71646545Y-63080888D01*
X71646541Y-63080885D01*
X71531817Y-63004228D01*
X71531804Y-63004221D01*
X71404332Y-62951421D01*
X71404322Y-62951418D01*
X71268995Y-62924500D01*
X71268993Y-62924500D01*
X71131007Y-62924500D01*
X71131005Y-62924500D01*
X70995677Y-62951418D01*
X70995667Y-62951421D01*
X70868195Y-63004221D01*
X70868182Y-63004228D01*
X70753458Y-63080885D01*
X70753454Y-63080888D01*
X70655888Y-63178454D01*
X70655885Y-63178458D01*
X70579228Y-63293182D01*
X70579221Y-63293195D01*
X70526421Y-63420667D01*
X70526418Y-63420677D01*
X70499500Y-63556004D01*
X70499500Y-63700085D01*
X70496710Y-63700085D01*
X70485942Y-63756959D01*
X70437892Y-63807683D01*
X70375541Y-63824500D01*
X69773992Y-63824500D01*
X69575880Y-63863907D01*
X69575872Y-63863909D01*
X69389247Y-63941212D01*
X69389237Y-63941217D01*
X69221281Y-64053441D01*
X69078441Y-64196281D01*
X68966217Y-64364237D01*
X68966212Y-64364247D01*
X68888909Y-64550872D01*
X68888907Y-64550880D01*
X68849500Y-64748992D01*
X35000500Y-64748992D01*
X35000500Y-58618995D01*
X36469499Y-58618995D01*
X36496418Y-58754322D01*
X36496421Y-58754332D01*
X36549221Y-58881804D01*
X36549228Y-58881817D01*
X36625885Y-58996541D01*
X36625888Y-58996545D01*
X36723454Y-59094111D01*
X36723458Y-59094114D01*
X36838182Y-59170771D01*
X36838195Y-59170778D01*
X36965667Y-59223578D01*
X36965672Y-59223580D01*
X36965676Y-59223580D01*
X36965677Y-59223581D01*
X37101004Y-59250500D01*
X37101007Y-59250500D01*
X37238995Y-59250500D01*
X37330041Y-59232389D01*
X37374328Y-59223580D01*
X37501811Y-59170775D01*
X37616542Y-59094114D01*
X37714114Y-58996542D01*
X37790775Y-58881811D01*
X37843580Y-58754328D01*
X37855581Y-58693995D01*
X37870500Y-58618995D01*
X37870500Y-58481004D01*
X37843581Y-58345677D01*
X37843580Y-58345676D01*
X37843580Y-58345672D01*
X37828302Y-58308787D01*
X37790778Y-58218195D01*
X37790771Y-58218182D01*
X37714114Y-58103458D01*
X37714111Y-58103454D01*
X37616545Y-58005888D01*
X37616541Y-58005885D01*
X37501817Y-57929228D01*
X37501804Y-57929221D01*
X37374332Y-57876421D01*
X37374322Y-57876418D01*
X37238995Y-57849500D01*
X37238993Y-57849500D01*
X37101007Y-57849500D01*
X37101005Y-57849500D01*
X36965677Y-57876418D01*
X36965667Y-57876421D01*
X36838195Y-57929221D01*
X36838182Y-57929228D01*
X36723458Y-58005885D01*
X36723454Y-58005888D01*
X36625888Y-58103454D01*
X36625885Y-58103458D01*
X36549228Y-58218182D01*
X36549221Y-58218195D01*
X36496421Y-58345667D01*
X36496418Y-58345677D01*
X36469500Y-58481004D01*
X36469500Y-58481007D01*
X36469500Y-58618993D01*
X36469500Y-58618995D01*
X36469499Y-58618995D01*
X35000500Y-58618995D01*
X35000500Y-57298992D01*
X68849500Y-57298992D01*
X68849500Y-57501007D01*
X68888907Y-57699119D01*
X68888909Y-57699127D01*
X68966212Y-57885752D01*
X68966217Y-57885762D01*
X69078441Y-58053718D01*
X69221281Y-58196558D01*
X69389237Y-58308782D01*
X69389241Y-58308784D01*
X69389244Y-58308786D01*
X69575873Y-58386091D01*
X69749700Y-58420667D01*
X69773992Y-58425499D01*
X69773996Y-58425500D01*
X69773997Y-58425500D01*
X70375541Y-58425500D01*
X70442580Y-58445185D01*
X70488335Y-58497989D01*
X70496980Y-58549915D01*
X70499500Y-58549915D01*
X70499500Y-58556007D01*
X70499500Y-58693993D01*
X70499500Y-58693995D01*
X70499499Y-58693995D01*
X70526418Y-58829322D01*
X70526421Y-58829332D01*
X70579221Y-58956804D01*
X70579228Y-58956817D01*
X70655885Y-59071541D01*
X70655888Y-59071545D01*
X70753454Y-59169111D01*
X70753458Y-59169114D01*
X70868182Y-59245771D01*
X70868195Y-59245778D01*
X70995667Y-59298578D01*
X70995672Y-59298580D01*
X70995676Y-59298580D01*
X70995677Y-59298581D01*
X71131004Y-59325500D01*
X71131007Y-59325500D01*
X71268995Y-59325500D01*
X71360041Y-59307389D01*
X71404328Y-59298580D01*
X71531811Y-59245775D01*
X71646542Y-59169114D01*
X71744114Y-59071542D01*
X71820775Y-58956811D01*
X71873580Y-58829328D01*
X71900500Y-58693993D01*
X71900500Y-58556007D01*
X71900500Y-58556004D01*
X71873581Y-58420677D01*
X71873580Y-58420676D01*
X71873580Y-58420672D01*
X71827236Y-58308787D01*
X71820778Y-58293195D01*
X71820771Y-58293182D01*
X71744114Y-58178458D01*
X71744111Y-58178454D01*
X71646545Y-58080888D01*
X71646541Y-58080885D01*
X71531817Y-58004228D01*
X71531804Y-58004221D01*
X71435462Y-57964316D01*
X71381058Y-57920476D01*
X71358993Y-57854182D01*
X71368351Y-57802307D01*
X71411091Y-57699127D01*
X71450500Y-57501003D01*
X71450500Y-57298997D01*
X71450345Y-57298222D01*
X71427203Y-57181870D01*
X71423602Y-57163766D01*
X72749500Y-57163766D01*
X72749500Y-57336233D01*
X72783143Y-57505366D01*
X72783146Y-57505378D01*
X72849138Y-57664698D01*
X72849145Y-57664711D01*
X72944954Y-57808098D01*
X72944957Y-57808102D01*
X73066897Y-57930042D01*
X73066901Y-57930045D01*
X73210288Y-58025854D01*
X73210301Y-58025861D01*
X73343142Y-58080885D01*
X73369626Y-58091855D01*
X73538766Y-58125499D01*
X73538769Y-58125500D01*
X73538771Y-58125500D01*
X74361231Y-58125500D01*
X74361232Y-58125499D01*
X74530374Y-58091855D01*
X74689705Y-58025858D01*
X74833099Y-57930045D01*
X74955045Y-57808099D01*
X75050858Y-57664705D01*
X75116855Y-57505374D01*
X75150500Y-57336229D01*
X75150500Y-57163771D01*
X75150500Y-57163768D01*
X75150499Y-57163766D01*
X75137989Y-57100873D01*
X75116855Y-56994626D01*
X75083557Y-56914237D01*
X75050861Y-56835301D01*
X75050854Y-56835288D01*
X74955045Y-56691901D01*
X74955042Y-56691897D01*
X74833102Y-56569957D01*
X74833098Y-56569954D01*
X74689711Y-56474145D01*
X74689698Y-56474138D01*
X74530378Y-56408146D01*
X74530366Y-56408143D01*
X74361232Y-56374500D01*
X74361229Y-56374500D01*
X73538771Y-56374500D01*
X73538768Y-56374500D01*
X73369633Y-56408143D01*
X73369621Y-56408146D01*
X73210301Y-56474138D01*
X73210288Y-56474145D01*
X73066901Y-56569954D01*
X73066897Y-56569957D01*
X72944957Y-56691897D01*
X72944954Y-56691901D01*
X72849145Y-56835288D01*
X72849138Y-56835301D01*
X72783146Y-56994621D01*
X72783143Y-56994633D01*
X72749500Y-57163766D01*
X71423602Y-57163766D01*
X71411092Y-57100880D01*
X71411091Y-57100873D01*
X71333786Y-56914244D01*
X71333784Y-56914241D01*
X71333782Y-56914237D01*
X71221558Y-56746281D01*
X71078718Y-56603441D01*
X70910762Y-56491217D01*
X70910752Y-56491212D01*
X70724127Y-56413909D01*
X70724119Y-56413907D01*
X70526007Y-56374500D01*
X70526003Y-56374500D01*
X69773997Y-56374500D01*
X69773992Y-56374500D01*
X69575880Y-56413907D01*
X69575872Y-56413909D01*
X69389247Y-56491212D01*
X69389237Y-56491217D01*
X69221281Y-56603441D01*
X69078441Y-56746281D01*
X68966217Y-56914237D01*
X68966212Y-56914247D01*
X68888909Y-57100872D01*
X68888907Y-57100880D01*
X68849500Y-57298992D01*
X35000500Y-57298992D01*
X35000500Y-55618995D01*
X36469499Y-55618995D01*
X36496418Y-55754322D01*
X36496421Y-55754332D01*
X36549221Y-55881804D01*
X36549228Y-55881817D01*
X36625885Y-55996541D01*
X36625888Y-55996545D01*
X36723454Y-56094111D01*
X36723458Y-56094114D01*
X36838182Y-56170771D01*
X36838195Y-56170778D01*
X36965667Y-56223578D01*
X36965672Y-56223580D01*
X36965676Y-56223580D01*
X36965677Y-56223581D01*
X37101004Y-56250500D01*
X37101007Y-56250500D01*
X37238995Y-56250500D01*
X37330041Y-56232389D01*
X37374328Y-56223580D01*
X37501811Y-56170775D01*
X37616542Y-56094114D01*
X37714114Y-55996542D01*
X37790775Y-55881811D01*
X37843580Y-55754328D01*
X37870500Y-55618993D01*
X37870500Y-55481007D01*
X37870500Y-55481004D01*
X37843581Y-55345677D01*
X37843580Y-55345676D01*
X37843580Y-55345672D01*
X37843578Y-55345667D01*
X37790778Y-55218195D01*
X37790771Y-55218182D01*
X37714114Y-55103458D01*
X37714111Y-55103454D01*
X37616545Y-55005888D01*
X37616541Y-55005885D01*
X37501817Y-54929228D01*
X37501804Y-54929221D01*
X37374332Y-54876421D01*
X37374322Y-54876418D01*
X37238995Y-54849500D01*
X37238993Y-54849500D01*
X37101007Y-54849500D01*
X37101005Y-54849500D01*
X36965677Y-54876418D01*
X36965667Y-54876421D01*
X36838195Y-54929221D01*
X36838182Y-54929228D01*
X36723458Y-55005885D01*
X36723454Y-55005888D01*
X36625888Y-55103454D01*
X36625885Y-55103458D01*
X36549228Y-55218182D01*
X36549221Y-55218195D01*
X36496421Y-55345667D01*
X36496418Y-55345677D01*
X36469500Y-55481004D01*
X36469500Y-55481007D01*
X36469500Y-55618993D01*
X36469500Y-55618995D01*
X36469499Y-55618995D01*
X35000500Y-55618995D01*
X35000500Y-50003246D01*
X35000670Y-49996756D01*
X35006071Y-49893713D01*
X36649500Y-49893713D01*
X36649500Y-50106286D01*
X36674117Y-50261716D01*
X36682754Y-50316243D01*
X36748284Y-50517924D01*
X36748444Y-50518414D01*
X36844951Y-50707820D01*
X36969890Y-50879786D01*
X37120213Y-51030109D01*
X37292179Y-51155048D01*
X37292181Y-51155049D01*
X37292184Y-51155051D01*
X37481588Y-51251557D01*
X37683757Y-51317246D01*
X37893713Y-51350500D01*
X37893714Y-51350500D01*
X38106286Y-51350500D01*
X38106287Y-51350500D01*
X38316243Y-51317246D01*
X38518412Y-51251557D01*
X38707816Y-51155051D01*
X38729789Y-51139086D01*
X38879786Y-51030109D01*
X38879788Y-51030106D01*
X38879792Y-51030104D01*
X39030104Y-50879792D01*
X39030106Y-50879788D01*
X39030109Y-50879786D01*
X39155048Y-50707820D01*
X39155047Y-50707820D01*
X39155051Y-50707816D01*
X39251557Y-50518412D01*
X39317246Y-50316243D01*
X39350500Y-50106287D01*
X39350500Y-49893713D01*
X39317246Y-49683757D01*
X39251557Y-49481588D01*
X39251555Y-49481585D01*
X39251554Y-49481580D01*
X39251553Y-49481579D01*
X39233006Y-49445178D01*
X39233004Y-49445176D01*
X39207296Y-49394721D01*
X39206803Y-49393753D01*
X45030000Y-49393753D01*
X45030000Y-49606246D01*
X45063242Y-49816127D01*
X45063242Y-49816130D01*
X45128904Y-50018217D01*
X45225375Y-50207550D01*
X45264728Y-50261716D01*
X45897037Y-49629408D01*
X45914075Y-49692993D01*
X45979901Y-49807007D01*
X46072993Y-49900099D01*
X46187007Y-49965925D01*
X46250590Y-49982962D01*
X45618282Y-50615269D01*
X45618282Y-50615270D01*
X45672449Y-50654624D01*
X45861782Y-50751095D01*
X46063870Y-50816757D01*
X46273754Y-50850000D01*
X46486246Y-50850000D01*
X46696127Y-50816757D01*
X46696130Y-50816757D01*
X46898217Y-50751095D01*
X47087554Y-50654622D01*
X47141716Y-50615270D01*
X47141717Y-50615270D01*
X46509408Y-49982962D01*
X46572993Y-49965925D01*
X46687007Y-49900099D01*
X46780099Y-49807007D01*
X46845925Y-49692993D01*
X46862962Y-49629408D01*
X47495270Y-50261717D01*
X47495270Y-50261716D01*
X47534622Y-50207554D01*
X47631095Y-50018217D01*
X47640492Y-49989295D01*
X47679928Y-49931618D01*
X47744286Y-49904419D01*
X47813133Y-49916331D01*
X47864610Y-49963574D01*
X47868908Y-49971314D01*
X47936004Y-50102995D01*
X48042441Y-50249494D01*
X48042445Y-50249499D01*
X48170500Y-50377554D01*
X48170505Y-50377558D01*
X48298287Y-50470396D01*
X48317006Y-50483996D01*
X48393094Y-50522765D01*
X48478360Y-50566211D01*
X48478363Y-50566212D01*
X48564476Y-50594191D01*
X48650591Y-50622171D01*
X48733429Y-50635291D01*
X48829449Y-50650500D01*
X48829454Y-50650500D01*
X49010551Y-50650500D01*
X49097259Y-50636765D01*
X49189409Y-50622171D01*
X49361639Y-50566211D01*
X49522994Y-50483996D01*
X49669501Y-50377553D01*
X49797553Y-50249501D01*
X49903996Y-50102994D01*
X49986211Y-49941639D01*
X50042171Y-49769409D01*
X50061066Y-49650112D01*
X50067527Y-49609321D01*
X50097456Y-49546186D01*
X50156768Y-49509255D01*
X50226630Y-49510253D01*
X50284863Y-49548863D01*
X50312473Y-49609321D01*
X50337829Y-49769410D01*
X50393787Y-49941636D01*
X50393788Y-49941639D01*
X50476006Y-50102997D01*
X50582441Y-50249494D01*
X50582445Y-50249499D01*
X50710500Y-50377554D01*
X50710505Y-50377558D01*
X50838287Y-50470396D01*
X50857006Y-50483996D01*
X50933094Y-50522765D01*
X51018360Y-50566211D01*
X51018363Y-50566212D01*
X51104476Y-50594191D01*
X51190591Y-50622171D01*
X51273429Y-50635291D01*
X51369449Y-50650500D01*
X51369454Y-50650500D01*
X51550551Y-50650500D01*
X51637259Y-50636765D01*
X51729409Y-50622171D01*
X51901639Y-50566211D01*
X52062994Y-50483996D01*
X52209501Y-50377553D01*
X52337553Y-50249501D01*
X52443996Y-50102994D01*
X52526211Y-49941639D01*
X52582171Y-49769409D01*
X52603027Y-49637729D01*
X52632956Y-49574595D01*
X52692267Y-49537663D01*
X52762130Y-49538661D01*
X52820363Y-49577271D01*
X52848477Y-49641234D01*
X52849500Y-49657127D01*
X52849500Y-50394856D01*
X52849502Y-50394882D01*
X52852413Y-50419987D01*
X52852415Y-50419991D01*
X52897793Y-50522764D01*
X52897794Y-50522765D01*
X52977235Y-50602206D01*
X53080009Y-50647585D01*
X53105135Y-50650500D01*
X54894864Y-50650499D01*
X54894879Y-50650497D01*
X54894882Y-50650497D01*
X54919987Y-50647586D01*
X54919988Y-50647585D01*
X54919991Y-50647585D01*
X55022765Y-50602206D01*
X55102206Y-50522765D01*
X55147585Y-50419991D01*
X55150500Y-50394865D01*
X55150499Y-49393753D01*
X57350000Y-49393753D01*
X57350000Y-49606246D01*
X57383242Y-49816127D01*
X57383242Y-49816130D01*
X57448904Y-50018217D01*
X57545375Y-50207550D01*
X57584728Y-50261716D01*
X58217037Y-49629408D01*
X58234075Y-49692993D01*
X58299901Y-49807007D01*
X58392993Y-49900099D01*
X58507007Y-49965925D01*
X58570590Y-49982962D01*
X57938282Y-50615269D01*
X57938282Y-50615270D01*
X57992449Y-50654624D01*
X58181782Y-50751095D01*
X58383870Y-50816757D01*
X58593754Y-50850000D01*
X58806246Y-50850000D01*
X59016127Y-50816757D01*
X59016130Y-50816757D01*
X59218217Y-50751095D01*
X59407554Y-50654622D01*
X59461716Y-50615270D01*
X59461717Y-50615270D01*
X58829408Y-49982962D01*
X58892993Y-49965925D01*
X59007007Y-49900099D01*
X59100099Y-49807007D01*
X59165925Y-49692993D01*
X59182962Y-49629408D01*
X59815270Y-50261717D01*
X59815270Y-50261716D01*
X59854622Y-50207554D01*
X59951095Y-50018217D01*
X59960492Y-49989295D01*
X59999928Y-49931618D01*
X60064286Y-49904419D01*
X60133133Y-49916331D01*
X60184610Y-49963574D01*
X60188908Y-49971314D01*
X60256004Y-50102995D01*
X60362441Y-50249494D01*
X60362445Y-50249499D01*
X60490500Y-50377554D01*
X60490505Y-50377558D01*
X60618287Y-50470396D01*
X60637006Y-50483996D01*
X60713094Y-50522765D01*
X60798360Y-50566211D01*
X60798363Y-50566212D01*
X60884476Y-50594191D01*
X60970591Y-50622171D01*
X61053429Y-50635291D01*
X61149449Y-50650500D01*
X61149454Y-50650500D01*
X61330551Y-50650500D01*
X61417259Y-50636765D01*
X61509409Y-50622171D01*
X61681639Y-50566211D01*
X61842994Y-50483996D01*
X61989501Y-50377553D01*
X62117553Y-50249501D01*
X62223996Y-50102994D01*
X62306211Y-49941639D01*
X62362171Y-49769409D01*
X62381066Y-49650112D01*
X62387527Y-49609321D01*
X62417456Y-49546186D01*
X62476768Y-49509255D01*
X62546630Y-49510253D01*
X62604863Y-49548863D01*
X62632473Y-49609321D01*
X62657829Y-49769410D01*
X62713787Y-49941636D01*
X62713788Y-49941639D01*
X62796006Y-50102997D01*
X62902441Y-50249494D01*
X62902445Y-50249499D01*
X63030500Y-50377554D01*
X63030505Y-50377558D01*
X63158287Y-50470396D01*
X63177006Y-50483996D01*
X63253094Y-50522765D01*
X63338360Y-50566211D01*
X63338363Y-50566212D01*
X63424476Y-50594191D01*
X63510591Y-50622171D01*
X63593429Y-50635291D01*
X63689449Y-50650500D01*
X63689454Y-50650500D01*
X63870551Y-50650500D01*
X63957259Y-50636765D01*
X64049409Y-50622171D01*
X64221639Y-50566211D01*
X64382994Y-50483996D01*
X64529501Y-50377553D01*
X64657553Y-50249501D01*
X64763996Y-50102994D01*
X64846211Y-49941639D01*
X64902171Y-49769409D01*
X64923027Y-49637729D01*
X64952956Y-49574595D01*
X65012267Y-49537663D01*
X65082130Y-49538661D01*
X65140363Y-49577271D01*
X65168477Y-49641234D01*
X65169500Y-49657127D01*
X65169500Y-50394856D01*
X65169502Y-50394882D01*
X65172413Y-50419987D01*
X65172415Y-50419991D01*
X65217793Y-50522764D01*
X65217794Y-50522765D01*
X65297235Y-50602206D01*
X65400009Y-50647585D01*
X65425135Y-50650500D01*
X67214864Y-50650499D01*
X67214879Y-50650497D01*
X67214882Y-50650497D01*
X67239987Y-50647586D01*
X67239988Y-50647585D01*
X67239991Y-50647585D01*
X67342765Y-50602206D01*
X67422206Y-50522765D01*
X67467585Y-50419991D01*
X67470500Y-50394865D01*
X67470499Y-49893713D01*
X71649500Y-49893713D01*
X71649500Y-50106286D01*
X71674117Y-50261716D01*
X71682754Y-50316243D01*
X71748284Y-50517924D01*
X71748444Y-50518414D01*
X71844951Y-50707820D01*
X71969890Y-50879786D01*
X72120213Y-51030109D01*
X72292179Y-51155048D01*
X72292181Y-51155049D01*
X72292184Y-51155051D01*
X72481588Y-51251557D01*
X72683757Y-51317246D01*
X72893713Y-51350500D01*
X72893714Y-51350500D01*
X73106286Y-51350500D01*
X73106287Y-51350500D01*
X73316243Y-51317246D01*
X73518412Y-51251557D01*
X73707816Y-51155051D01*
X73729789Y-51139086D01*
X73879786Y-51030109D01*
X73879788Y-51030106D01*
X73879792Y-51030104D01*
X74030104Y-50879792D01*
X74030106Y-50879788D01*
X74030109Y-50879786D01*
X74155048Y-50707820D01*
X74155047Y-50707820D01*
X74155051Y-50707816D01*
X74251557Y-50518412D01*
X74317246Y-50316243D01*
X74350500Y-50106287D01*
X74350500Y-49893713D01*
X74317246Y-49683757D01*
X74251557Y-49481588D01*
X74155051Y-49292184D01*
X74155049Y-49292181D01*
X74155048Y-49292179D01*
X74030109Y-49120213D01*
X73879786Y-48969890D01*
X73707820Y-48844951D01*
X73518414Y-48748444D01*
X73518413Y-48748443D01*
X73518412Y-48748443D01*
X73316243Y-48682754D01*
X73316241Y-48682753D01*
X73316240Y-48682753D01*
X73154957Y-48657208D01*
X73106287Y-48649500D01*
X72893713Y-48649500D01*
X72845042Y-48657208D01*
X72683760Y-48682753D01*
X72481585Y-48748444D01*
X72292179Y-48844951D01*
X72120213Y-48969890D01*
X71969890Y-49120213D01*
X71844951Y-49292179D01*
X71748444Y-49481585D01*
X71682753Y-49683760D01*
X71649500Y-49893713D01*
X67470499Y-49893713D01*
X67470499Y-49500000D01*
X67470499Y-48605143D01*
X67470499Y-48605136D01*
X67470497Y-48605117D01*
X67467586Y-48580012D01*
X67467585Y-48580010D01*
X67467585Y-48580009D01*
X67422206Y-48477235D01*
X67342765Y-48397794D01*
X67342763Y-48397793D01*
X67239992Y-48352415D01*
X67214865Y-48349500D01*
X65425143Y-48349500D01*
X65425117Y-48349502D01*
X65400012Y-48352413D01*
X65400008Y-48352415D01*
X65297235Y-48397793D01*
X65217794Y-48477234D01*
X65172415Y-48580006D01*
X65172415Y-48580008D01*
X65169500Y-48605131D01*
X65169500Y-49342871D01*
X65149815Y-49409910D01*
X65097011Y-49455665D01*
X65027853Y-49465609D01*
X64964297Y-49436584D01*
X64926523Y-49377806D01*
X64923027Y-49362269D01*
X64911926Y-49292184D01*
X64902171Y-49230591D01*
X64858530Y-49096275D01*
X64846212Y-49058363D01*
X64846211Y-49058360D01*
X64807191Y-48981780D01*
X64763996Y-48897006D01*
X64726175Y-48844949D01*
X64657558Y-48750505D01*
X64657554Y-48750500D01*
X64529499Y-48622445D01*
X64529494Y-48622441D01*
X64382997Y-48516006D01*
X64382996Y-48516005D01*
X64382994Y-48516004D01*
X64306906Y-48477235D01*
X64221639Y-48433788D01*
X64221636Y-48433787D01*
X64049410Y-48377829D01*
X63870551Y-48349500D01*
X63870546Y-48349500D01*
X63689454Y-48349500D01*
X63689449Y-48349500D01*
X63510589Y-48377829D01*
X63338363Y-48433787D01*
X63338360Y-48433788D01*
X63177002Y-48516006D01*
X63030505Y-48622441D01*
X63030500Y-48622445D01*
X62902445Y-48750500D01*
X62902441Y-48750505D01*
X62796006Y-48897002D01*
X62713788Y-49058360D01*
X62713787Y-49058363D01*
X62657829Y-49230589D01*
X62632473Y-49390678D01*
X62602544Y-49453813D01*
X62543232Y-49490744D01*
X62473369Y-49489746D01*
X62415137Y-49451136D01*
X62387527Y-49390678D01*
X62371926Y-49292184D01*
X62362171Y-49230591D01*
X62318530Y-49096275D01*
X62306212Y-49058363D01*
X62306211Y-49058360D01*
X62267191Y-48981780D01*
X62223996Y-48897006D01*
X62186175Y-48844949D01*
X62117558Y-48750505D01*
X62117554Y-48750500D01*
X61989499Y-48622445D01*
X61989494Y-48622441D01*
X61842997Y-48516006D01*
X61842996Y-48516005D01*
X61842994Y-48516004D01*
X61766906Y-48477235D01*
X61681639Y-48433788D01*
X61681636Y-48433787D01*
X61509410Y-48377829D01*
X61330551Y-48349500D01*
X61330546Y-48349500D01*
X61149454Y-48349500D01*
X61149449Y-48349500D01*
X60970589Y-48377829D01*
X60798363Y-48433787D01*
X60798360Y-48433788D01*
X60637002Y-48516006D01*
X60490505Y-48622441D01*
X60490500Y-48622445D01*
X60362445Y-48750500D01*
X60362441Y-48750505D01*
X60256004Y-48897004D01*
X60188908Y-49028685D01*
X60140933Y-49079480D01*
X60073112Y-49096275D01*
X60006977Y-49073737D01*
X59963527Y-49019021D01*
X59960492Y-49010705D01*
X59951094Y-48981780D01*
X59854624Y-48792449D01*
X59815270Y-48738282D01*
X59815269Y-48738282D01*
X59182962Y-49370590D01*
X59165925Y-49307007D01*
X59100099Y-49192993D01*
X59007007Y-49099901D01*
X58892993Y-49034075D01*
X58829409Y-49017037D01*
X59461716Y-48384728D01*
X59407550Y-48345375D01*
X59218217Y-48248904D01*
X59016129Y-48183242D01*
X58806246Y-48150000D01*
X58593754Y-48150000D01*
X58383872Y-48183242D01*
X58383869Y-48183242D01*
X58181782Y-48248904D01*
X57992439Y-48345380D01*
X57938282Y-48384727D01*
X57938282Y-48384728D01*
X58570591Y-49017037D01*
X58507007Y-49034075D01*
X58392993Y-49099901D01*
X58299901Y-49192993D01*
X58234075Y-49307007D01*
X58217037Y-49370591D01*
X57584728Y-48738282D01*
X57584727Y-48738282D01*
X57545380Y-48792439D01*
X57448904Y-48981782D01*
X57383242Y-49183869D01*
X57383242Y-49183872D01*
X57350000Y-49393753D01*
X55150499Y-49393753D01*
X55150499Y-48605136D01*
X55150497Y-48605117D01*
X55147586Y-48580012D01*
X55147585Y-48580011D01*
X55147585Y-48580009D01*
X55102206Y-48477235D01*
X55022765Y-48397794D01*
X55022763Y-48397793D01*
X54919992Y-48352415D01*
X54894865Y-48349500D01*
X53105143Y-48349500D01*
X53105117Y-48349502D01*
X53080012Y-48352413D01*
X53080008Y-48352415D01*
X52977235Y-48397793D01*
X52897794Y-48477234D01*
X52852415Y-48580006D01*
X52852415Y-48580008D01*
X52849500Y-48605131D01*
X52849500Y-49342871D01*
X52829815Y-49409910D01*
X52777011Y-49455665D01*
X52707853Y-49465609D01*
X52644297Y-49436584D01*
X52606523Y-49377806D01*
X52603027Y-49362269D01*
X52591926Y-49292184D01*
X52582171Y-49230591D01*
X52538530Y-49096275D01*
X52526212Y-49058363D01*
X52526211Y-49058360D01*
X52487191Y-48981780D01*
X52443996Y-48897006D01*
X52406175Y-48844949D01*
X52337558Y-48750505D01*
X52337554Y-48750500D01*
X52209499Y-48622445D01*
X52209494Y-48622441D01*
X52062997Y-48516006D01*
X52062996Y-48516005D01*
X52062994Y-48516004D01*
X51986906Y-48477235D01*
X51901639Y-48433788D01*
X51901636Y-48433787D01*
X51729410Y-48377829D01*
X51550551Y-48349500D01*
X51550546Y-48349500D01*
X51369454Y-48349500D01*
X51369449Y-48349500D01*
X51190589Y-48377829D01*
X51018363Y-48433787D01*
X51018360Y-48433788D01*
X50857002Y-48516006D01*
X50710505Y-48622441D01*
X50710500Y-48622445D01*
X50582445Y-48750500D01*
X50582441Y-48750505D01*
X50476006Y-48897002D01*
X50393788Y-49058360D01*
X50393787Y-49058363D01*
X50337829Y-49230589D01*
X50312473Y-49390678D01*
X50282544Y-49453813D01*
X50223232Y-49490744D01*
X50153369Y-49489746D01*
X50095137Y-49451136D01*
X50067527Y-49390678D01*
X50051926Y-49292184D01*
X50042171Y-49230591D01*
X49998530Y-49096275D01*
X49986212Y-49058363D01*
X49986211Y-49058360D01*
X49947191Y-48981780D01*
X49903996Y-48897006D01*
X49866175Y-48844949D01*
X49797558Y-48750505D01*
X49797554Y-48750500D01*
X49669499Y-48622445D01*
X49669494Y-48622441D01*
X49522997Y-48516006D01*
X49522996Y-48516005D01*
X49522994Y-48516004D01*
X49446906Y-48477235D01*
X49361639Y-48433788D01*
X49361636Y-48433787D01*
X49189410Y-48377829D01*
X49010551Y-48349500D01*
X49010546Y-48349500D01*
X48829454Y-48349500D01*
X48829449Y-48349500D01*
X48650589Y-48377829D01*
X48478363Y-48433787D01*
X48478360Y-48433788D01*
X48317002Y-48516006D01*
X48170505Y-48622441D01*
X48170500Y-48622445D01*
X48042445Y-48750500D01*
X48042441Y-48750505D01*
X47936004Y-48897004D01*
X47868908Y-49028685D01*
X47820933Y-49079480D01*
X47753112Y-49096275D01*
X47686977Y-49073737D01*
X47643527Y-49019021D01*
X47640492Y-49010705D01*
X47631094Y-48981780D01*
X47534624Y-48792449D01*
X47495270Y-48738282D01*
X47495269Y-48738282D01*
X46862962Y-49370590D01*
X46845925Y-49307007D01*
X46780099Y-49192993D01*
X46687007Y-49099901D01*
X46572993Y-49034075D01*
X46509409Y-49017037D01*
X47141716Y-48384728D01*
X47087550Y-48345375D01*
X46898217Y-48248904D01*
X46696129Y-48183242D01*
X46486246Y-48150000D01*
X46273754Y-48150000D01*
X46063872Y-48183242D01*
X46063869Y-48183242D01*
X45861782Y-48248904D01*
X45672439Y-48345380D01*
X45618282Y-48384727D01*
X45618282Y-48384728D01*
X46250591Y-49017037D01*
X46187007Y-49034075D01*
X46072993Y-49099901D01*
X45979901Y-49192993D01*
X45914075Y-49307007D01*
X45897037Y-49370591D01*
X45264728Y-48738282D01*
X45264727Y-48738282D01*
X45225380Y-48792439D01*
X45128904Y-48981782D01*
X45063242Y-49183869D01*
X45063242Y-49183872D01*
X45030000Y-49393753D01*
X39206803Y-49393753D01*
X39155051Y-49292184D01*
X39155049Y-49292181D01*
X39155048Y-49292179D01*
X39030109Y-49120213D01*
X38879786Y-48969890D01*
X38707820Y-48844951D01*
X38518414Y-48748444D01*
X38518413Y-48748443D01*
X38518412Y-48748443D01*
X38316243Y-48682754D01*
X38316241Y-48682753D01*
X38316240Y-48682753D01*
X38154957Y-48657208D01*
X38106287Y-48649500D01*
X37893713Y-48649500D01*
X37845042Y-48657208D01*
X37683760Y-48682753D01*
X37481585Y-48748444D01*
X37292179Y-48844951D01*
X37120213Y-48969890D01*
X36969890Y-49120213D01*
X36844951Y-49292179D01*
X36748444Y-49481585D01*
X36682753Y-49683760D01*
X36649500Y-49893713D01*
X35006071Y-49893713D01*
X35006666Y-49882351D01*
X35015184Y-49719817D01*
X35015794Y-49712424D01*
X35022814Y-49650112D01*
X35023553Y-49644658D01*
X35061850Y-49402860D01*
X35063420Y-49394721D01*
X35076105Y-49339144D01*
X35077172Y-49334844D01*
X35142288Y-49091829D01*
X35145008Y-49083014D01*
X35159932Y-49040363D01*
X35161178Y-49036963D01*
X35255752Y-48790592D01*
X35259768Y-48781292D01*
X35269719Y-48760629D01*
X35270842Y-48758363D01*
X35399419Y-48506014D01*
X35405885Y-48494816D01*
X35569825Y-48242371D01*
X35577434Y-48231899D01*
X35766858Y-47997979D01*
X35775525Y-47988354D01*
X35988354Y-47775525D01*
X35997979Y-47766858D01*
X36231899Y-47577434D01*
X36242371Y-47569825D01*
X36494824Y-47405880D01*
X36506014Y-47399419D01*
X36758363Y-47270842D01*
X36760629Y-47269719D01*
X36781292Y-47259768D01*
X36790592Y-47255752D01*
X37036963Y-47161178D01*
X37040363Y-47159932D01*
X37083014Y-47145008D01*
X37091829Y-47142288D01*
X37334844Y-47077172D01*
X37339144Y-47076105D01*
X37394721Y-47063420D01*
X37402860Y-47061850D01*
X37644658Y-47023553D01*
X37650112Y-47022814D01*
X37712430Y-47015793D01*
X37719811Y-47015184D01*
X37996756Y-47000669D01*
X38003246Y-47000500D01*
X72996754Y-47000500D01*
X73003243Y-47000669D01*
G37*
%TD.AperFunction*%
%TD*%
M02*
