M48
; DRILL file KiCad 10.0.1 date 2026-04-26T14:02:59
; FORMAT={-:-/ absolute / metric / decimal}
; #@! TF.CreationDate,2026-04-26T14:02:59-06:00
; #@! TF.GenerationSoftware,Kicad,Pcbnew,10.0.1
; #@! TF.FileFunction,Plated,1,2,PTH
FMAT,2
METRIC
; #@! TA.AperFunction,Plated,PTH,ViaDrill
T1C0.300
; #@! TA.AperFunction,Plated,PTH,ComponentDrill
T2C0.550
; #@! TA.AperFunction,Plated,PTH,ComponentDrill
T3C0.850
; #@! TA.AperFunction,Plated,PTH,ComponentDrill
T4C1.000
%
G90
G05
T1
X40.4Y-66.4
X40.6Y-54.6
X42.1Y-61.5
X42.6Y-60.6
X44.0Y-59.0
X44.34Y-70.34
X44.4Y-67.4
X44.8Y-62.6
X47.9Y-72.9
X49.0Y-64.0
X49.23Y-72.9
X49.5Y-60.3
X50.6Y-68.8
X52.5Y-71.2
X53.6Y-65.8
X53.8Y-71.2
X58.6Y-61.1
X63.0Y-70.1
X63.7Y-70.1
X64.2Y-65.8
X64.2Y-66.6
X67.4Y-70.8
X68.2Y-59.8
X68.2Y-68.2
T4
X46.38Y-49.5
X46.6Y-75.3
X48.92Y-49.5
X49.14Y-75.3
X51.46Y-49.5
X51.68Y-75.3
X54.0Y-49.5
X54.22Y-75.3
X58.7Y-49.5
X61.24Y-49.5
X63.78Y-49.5
X66.32Y-49.5
T2
G00X73.625Y-57.25
M15
G01X74.275Y-57.25
M16
G05
G00X73.625Y-65.0
M15
G01X74.275Y-65.0
M16
G05
T3
G00X69.875Y-57.4
M15
G01X70.425Y-57.4
M16
G05
G00X69.875Y-64.85
M15
G01X70.425Y-64.85
M16
G05
M30
